<svg width="111" height="18" viewBox="0 0 111 18" xmlns="http://www.w3.org/2000/svg"><title>Group 2</title><g fill="none" fill-rule="evenodd"><path d="M0 1.278v3.275h4.683v13.12h3.362V4.553h4.66V1.278H0zm27.994 16.395l-2.617-6.844c1.753-.771 2.232-2.651 2.232-4.64 0-2.712-2.257-4.934-5.043-4.934h-6.34V17.65h3.362v-6.548h2.522l2.305 6.572h3.579zM22.566 4.529c.937 0 1.681.749 1.681 1.66 0 .913-.744 1.638-1.681 1.638h-2.978V4.529h2.978zM40.65 1.28l-3.435 6.174-3.458-6.175h-3.722l5.5 10.384v6.01h3.362v-6.01l5.475-10.384H40.65zM60.11 2.821a8.934 8.934 0 0 0-5.38-1.8c-4.803 0-8.717 3.811-8.717 8.489 0 4.677 3.914 8.489 8.718 8.489a8.889 8.889 0 0 0 5.571-1.964l-2.161-2.41c-3.17 2.34-8.382.492-8.382-4.115 0-4.397 4.923-6.315 8.19-4.257l2.161-2.432zm3.074 6.642c0 4.677 3.915 8.49 8.718 8.49s8.717-3.813 8.717-8.49c0-4.678-3.914-8.49-8.717-8.49-4.803 0-8.718 3.812-8.718 8.49zm8.718-5.122c2.906 0 5.26 2.292 5.26 5.122s-2.354 5.122-5.26 5.122c-2.906 0-5.26-2.292-5.26-5.122s2.354-5.122 5.26-5.122zm11.6-3.064V17.65h1.368v.024h3.386c1.129 0 2.234-.21 3.266-.655 1.009-.398 1.898-1.006 2.666-1.754a7.495 7.495 0 0 0 1.801-2.596 7.68 7.68 0 0 0 .673-3.204 7.65 7.65 0 0 0-.673-3.18 7.809 7.809 0 0 0-1.8-2.62 8.446 8.446 0 0 0-2.667-1.754 8.629 8.629 0 0 0-3.266-.632h-4.755zm3.361 13.12V4.553h1.393c2.786 0 5.044 2.198 5.044 4.91 0 2.714-2.258 4.935-5.044 4.935h-1.393zM111 1.278H99.785v16.395h11.143v-3.275h-7.781v-3.554h6.484V7.57h-6.484V4.553H111V1.278z" fill="#F8F8F8"/><path fill="#262626" d="M68.4 0h7v6h-7z"/><path fill="#F8F8F8" d="M70.41 0h3.2v6h-3.2z"/></g></svg>