<?xml version="1.0" encoding="UTF-8"?>
<svg width="18px" height="20px" viewBox="0 0 18 20" version="1.1" xmlns="http://www.w3.org/2000/svg" xmlns:xlink="http://www.w3.org/1999/xlink">
    <!-- Generator: Sketch 40.1 (33804) - http://www.bohemiancoding.com/sketch -->
    <title>settings</title>
    <desc>Created with Sketch.</desc>
    <defs></defs>
    <g id="Page-1" stroke="none" stroke-width="1" fill="none" fill-rule="evenodd">
        <g id="Desktop-HD" transform="translate(-1407.000000, -95.000000)" fill="#5A5A5A">
            <g id="Group-12" transform="translate(1390.000000, 80.000000)">
                <path d="M34.1906861,26.5633215 L33.2270759,26.0012156 C32.183165,25.3588089 32.183165,23.8330928 33.2270759,23.1906861 L34.1906861,22.6285802 C34.9936945,22.1467751 35.234597,21.183165 34.752792,20.4604574 L33.9497835,19.095343 C33.4679785,18.2923346 32.5043684,18.0514321 31.7816608,18.5332371 L30.8180506,19.095343 C29.7741397,19.7377498 28.4090253,18.9347414 28.4090253,17.7302287 L28.4090253,16.6060169 C28.4090253,15.7227076 27.6863177,15 26.8030084,15 L25.1969916,15 C24.3136823,15 23.5909747,15.7227076 23.5909747,16.6060169 L23.5909747,17.6499278 C23.5909747,18.8544405 22.2258603,19.6574489 21.1819494,19.0150422 L20.2183392,18.5332371 C19.4153308,18.0514321 18.4517207,18.3726354 18.0502165,19.095343 L17.247208,20.4604574 C16.8457038,21.2634658 17.0866063,22.2270759 17.8093139,22.708881 L18.7729241,23.2709869 C19.816835,23.8330928 19.816835,25.4391097 18.7729241,26.0012156 L17.8093139,26.5633215 C17.0063055,27.0451266 16.765403,28.0087367 17.247208,28.7314443 L18.0502165,30.0965587 C18.5320215,30.8995671 19.4956316,31.1404696 20.2183392,30.6586646 L21.1819494,30.1768595 C22.2258603,29.5344527 23.5909747,30.3374612 23.5909747,31.5419738 L23.5909747,32.6661857 C23.5909747,33.5494949 24.3136823,34.2722025 25.1969916,34.2722025 L26.8030084,34.2722025 C27.6863177,34.2722025 28.4090253,33.5494949 28.4090253,32.6661857 L28.4090253,31.6222747 C28.4090253,30.417762 29.7741397,29.6147536 30.8180506,30.2571603 L31.7816608,30.8192662 C32.5846692,31.3010713 33.5482793,30.9798679 33.9497835,30.2571603 L34.752792,28.892046 C35.1542962,28.0087367 34.9133937,27.0451266 34.1906861,26.5633215 L34.1906861,26.5633215 Z M26,27.848135 C24.2333814,27.848135 22.7879662,26.4027198 22.7879662,24.6361013 C22.7879662,22.8694827 24.2333814,21.4240675 26,21.4240675 C27.7666186,21.4240675 29.2120338,22.8694827 29.2120338,24.6361013 C29.2120338,26.4027198 27.7666186,27.848135 26,27.848135 L26,27.848135 Z" id="settings"></path>
            </g>
        </g>
    </g>
</svg>