<?xml version="1.0" encoding="UTF-8"?>
<svg width="16px" height="16px" viewBox="0 0 16 16" version="1.1" xmlns="http://www.w3.org/2000/svg" xmlns:xlink="http://www.w3.org/1999/xlink">
    <!-- Generator: Sketch 40.1 (33804) - http://www.bohemiancoding.com/sketch -->
    <title>Shape</title>
    <desc>Created with Sketch.</desc>
    <defs></defs>
    <g id="Page-1" stroke="none" stroke-width="1" fill="none" fill-rule="evenodd">
        <g id="Desktop-HD" transform="translate(-1357.000000, -97.000000)" fill="#5A5A5A">
            <g id="Group-12" transform="translate(1340.000000, 80.000000)">
                <path d="M26.7391304,26.7391304 L26.7391304,32.6521739 C26.7391304,32.8441739 26.5833043,33 26.3913043,33 L23.6086957,33 C23.4166957,33 23.2608696,32.8441739 23.2608696,32.6521739 L23.2608696,26.7391304 L17.3478261,26.7391304 C17.1558261,26.7391304 17,26.5833043 17,26.3913043 L17,23.6086957 C17,23.4166957 17.1558261,23.2608696 17.3478261,23.2608696 L23.2608696,23.2608696 L23.2608696,17.3478261 C23.2608696,17.1558261 23.4166957,17 23.6086957,17 L26.3913043,17 C26.5833043,17 26.7391304,17.1558261 26.7391304,17.3478261 L26.7391304,23.2608696 L32.6521739,23.2608696 C32.8441739,23.2608696 33,23.4166957 33,23.6086957 L33,26.3913043 C33,26.5833043 32.8441739,26.7391304 32.6521739,26.7391304 L26.7391304,26.7391304 Z" id="Shape"></path>
            </g>
        </g>
    </g>
</svg>